<svg width="11" height="8" viewBox="0 0 11 8" fill="none" xmlns="http://www.w3.org/2000/svg">
<path d="M2.95043e-06 6.468V4.908L3.024 3.576L2.95043e-06 2.232V0.672002L4.62 2.928V4.2L2.95043e-06 6.468ZM10.8377 5.052V5.232C10.7897 5.832 10.5337 6.284 10.0697 6.588C9.61369 6.892 9.04169 7.044 8.35369 7.044C7.33769 7.044 6.62569 6.86 6.21769 6.492C5.84169 6.156 5.65369 5.66 5.65369 5.004V4.86H7.06969C7.06969 5.228 7.16569 5.48 7.35769 5.616C7.54969 5.752 7.88169 5.82 8.35369 5.82C8.99369 5.82 9.31369 5.588 9.31369 5.124C9.31369 4.74 9.20169 4.484 8.97769 4.356C8.87369 4.292 8.74169 4.244 8.58169 4.212L7.36969 4.008C6.31369 3.84 5.78569 3.18 5.78569 2.028C5.78569 1.388 6.01769 0.892002 6.48169 0.540001C6.95369 0.180001 7.54969 1.19209e-06 8.26969 1.19209e-06C9.90969 1.19209e-06 10.7297 0.708001 10.7297 2.124V2.28H9.37369C9.35769 1.904 9.25769 1.648 9.07369 1.512C8.88969 1.376 8.62969 1.308 8.29369 1.308C7.96569 1.308 7.71769 1.376 7.54969 1.512C7.38169 1.64 7.29769 1.784 7.29769 1.944C7.29769 2.4 7.48169 2.66 7.84969 2.724L9.30169 2.988C10.3257 3.18 10.8377 3.868 10.8377 5.052Z" fill="white"/>
</svg>
